<svg width="1112" height="71" viewBox="0 0 1112 71" fill="none" xmlns="http://www.w3.org/2000/svg">
<rect y="24.1667" width="23.1667" height="23.1667" fill="black"/>
<rect x="46.3333" y="24.1667" width="23.1667" height="23.1667" fill="black"/>
<rect x="92.6667" y="24.1667" width="23.1667" height="23.1667" fill="black"/>
<rect x="139" y="24.1667" width="23.1667" height="23.1667" fill="black"/>
<rect x="185.333" y="24.1667" width="23.1667" height="23.1667" fill="black"/>
<rect x="231.667" y="24.1667" width="23.1667" height="23.1667" fill="black"/>
<rect x="23.1667" y="47.3333" width="23.1667" height="23.1667" fill="black"/>
<rect x="69.5" y="47.3333" width="23.1667" height="23.1667" fill="black"/>
<rect x="115.833" y="47.3333" width="23.1667" height="23.1667" fill="black"/>
<rect x="162.167" y="47.3333" width="23.1667" height="23.1667" fill="black"/>
<rect x="208.5" y="47.3333" width="23.1667" height="23.1667" fill="black"/>
<rect x="254.833" y="47.3333" width="23.1667" height="23.1667" fill="black"/>
<rect x="23.1667" y="1" width="23.1667" height="23.1667" fill="black"/>
<rect x="69.5" y="1" width="23.1667" height="23.1667" fill="black"/>
<rect x="115.833" y="1" width="23.1667" height="23.1667" fill="black"/>
<rect x="162.167" y="1" width="23.1667" height="23.1667" fill="black"/>
<rect x="208.5" y="1" width="23.1667" height="23.1667" fill="black"/>
<rect x="254.833" y="1" width="23.1667" height="23.1667" fill="black"/>
<rect x="278" y="23.1667" width="23.1667" height="23.1667" fill="black"/>
<rect x="324.333" y="23.1667" width="23.1667" height="23.1667" fill="black"/>
<rect x="370.667" y="23.1667" width="23.1667" height="23.1667" fill="black"/>
<rect x="417" y="23.1667" width="23.1667" height="23.1667" fill="black"/>
<rect x="463.333" y="23.1667" width="23.1667" height="23.1667" fill="black"/>
<rect x="509.667" y="23.1667" width="23.1667" height="23.1667" fill="black"/>
<rect x="301.167" y="46.3333" width="23.1667" height="23.1667" fill="black"/>
<rect x="347.5" y="46.3333" width="23.1667" height="23.1667" fill="black"/>
<rect x="393.833" y="46.3333" width="23.1667" height="23.1667" fill="black"/>
<rect x="440.167" y="46.3333" width="23.1667" height="23.1667" fill="black"/>
<rect x="486.5" y="46.3333" width="23.1667" height="23.1667" fill="black"/>
<rect x="532.833" y="46.3333" width="23.1667" height="23.1667" fill="black"/>
<rect x="301.167" width="23.1667" height="23.1667" fill="black"/>
<rect x="347.5" width="23.1667" height="23.1667" fill="black"/>
<rect x="393.833" width="23.1667" height="23.1667" fill="black"/>
<rect x="440.167" width="23.1667" height="23.1667" fill="black"/>
<rect x="486.5" width="23.1667" height="23.1667" fill="black"/>
<rect x="532.833" width="23.1667" height="23.1667" fill="black"/>
<rect x="556" y="24.1667" width="23.1667" height="23.1667" fill="black"/>
<rect x="602.333" y="24.1667" width="23.1667" height="23.1667" fill="black"/>
<rect x="648.667" y="24.1667" width="23.1667" height="23.1667" fill="black"/>
<rect x="695" y="24.1667" width="23.1667" height="23.1667" fill="black"/>
<rect x="741.333" y="24.1667" width="23.1667" height="23.1667" fill="black"/>
<rect x="787.667" y="24.1667" width="23.1667" height="23.1667" fill="black"/>
<rect x="579.167" y="47.3333" width="23.1667" height="23.1667" fill="black"/>
<rect x="625.5" y="47.3333" width="23.1667" height="23.1667" fill="black"/>
<rect x="671.833" y="47.3333" width="23.1667" height="23.1667" fill="black"/>
<rect x="718.167" y="47.3333" width="23.1667" height="23.1667" fill="black"/>
<rect x="764.5" y="47.3333" width="23.1667" height="23.1667" fill="black"/>
<rect x="810.833" y="47.3333" width="23.1667" height="23.1667" fill="black"/>
<rect x="579.167" y="1" width="23.1667" height="23.1667" fill="black"/>
<rect x="625.5" y="1" width="23.1667" height="23.1667" fill="black"/>
<rect x="671.833" y="1" width="23.1667" height="23.1667" fill="black"/>
<rect x="718.167" y="1" width="23.1667" height="23.1667" fill="black"/>
<rect x="764.5" y="1" width="23.1667" height="23.1667" fill="black"/>
<rect x="810.833" y="1" width="23.1667" height="23.1667" fill="black"/>
<rect x="834" y="24.1667" width="23.1667" height="23.1667" fill="black"/>
<rect x="880.333" y="24.1667" width="23.1667" height="23.1667" fill="black"/>
<rect x="926.667" y="24.1667" width="23.1667" height="23.1667" fill="black"/>
<rect x="973" y="24.1667" width="23.1667" height="23.1667" fill="black"/>
<rect x="1019.33" y="24.1667" width="23.1667" height="23.1667" fill="black"/>
<rect x="1065.67" y="24.1667" width="23.1667" height="23.1667" fill="black"/>
<rect x="857.167" y="47.3333" width="23.1667" height="23.1667" fill="black"/>
<rect x="903.5" y="47.3333" width="23.1667" height="23.1667" fill="black"/>
<rect x="949.833" y="47.3333" width="23.1667" height="23.1667" fill="black"/>
<rect x="996.167" y="47.3333" width="23.1667" height="23.1667" fill="black"/>
<rect x="1042.5" y="47.3333" width="23.1667" height="23.1667" fill="black"/>
<rect x="1088.83" y="47.3333" width="23.1667" height="23.1667" fill="black"/>
<rect x="857.167" y="1" width="23.1667" height="23.1667" fill="black"/>
<rect x="903.5" y="1" width="23.1667" height="23.1667" fill="black"/>
<rect x="949.833" y="1" width="23.1667" height="23.1667" fill="black"/>
<rect x="996.167" y="1" width="23.1667" height="23.1667" fill="black"/>
<rect x="1042.5" y="1" width="23.1667" height="23.1667" fill="black"/>
<rect x="1088.83" y="1" width="23.1667" height="23.1667" fill="black"/>
</svg>
