<svg width="1280" height="832" viewBox="0 0 1280 832" fill="none" xmlns="http://www.w3.org/2000/svg">
<g clip-path="url(#clip0_1_2)">
<circle cx="14" cy="71" r="2" fill="#FF0000"/>
<circle cx="14" cy="127" r="2" fill="#FF0000"/>
<circle cx="14" cy="99" r="2" fill="#FF0000"/>
<circle cx="14" cy="155" r="2" fill="#FF0000"/>
<circle cx="38" cy="71" r="2" fill="#FF0000"/>
<circle cx="38" cy="127" r="2" fill="#FF0000"/>
<circle cx="38" cy="99" r="2" fill="#FF0000"/>
<circle cx="38" cy="155" r="2" fill="#FF0000"/>
<circle cx="14" cy="85" r="2" fill="#FF0000"/>
<circle cx="14" cy="141" r="2" fill="#FF0000"/>
<circle cx="14" cy="113" r="2" fill="#FF0000"/>
<circle cx="14" cy="169" r="2" fill="#FF0000"/>
<circle cx="38" cy="85" r="2" fill="#FF0000"/>
<circle cx="38" cy="141" r="2" fill="#FF0000"/>
<circle cx="38" cy="113" r="2" fill="#FF0000"/>
<circle cx="38" cy="169" r="2" fill="#FF0000"/>
<circle cx="26" cy="71" r="2" fill="#FF0000"/>
<circle cx="26" cy="127" r="2" fill="#FF0000"/>
<circle cx="26" cy="99" r="2" fill="#FF0000"/>
<circle cx="26" cy="155" r="2" fill="#FF0000"/>
<circle cx="2" cy="71" r="2" fill="#FF0000"/>
<circle cx="50" cy="71" r="2" fill="#FF0000"/>
<circle cx="50" cy="127" r="2" fill="#FF0000"/>
<circle cx="2" cy="127" r="2" fill="#FF0000"/>
<circle cx="2" cy="99" r="2" fill="#FF0000"/>
<circle cx="50" cy="99" r="2" fill="#FF0000"/>
<circle cx="50" cy="155" r="2" fill="#FF0000"/>
<circle cx="2" cy="155" r="2" fill="#FF0000"/>
<circle cx="26" cy="85" r="2" fill="#FF0000"/>
<circle cx="26" cy="141" r="2" fill="#FF0000"/>
<circle cx="26" cy="113" r="2" fill="#FF0000"/>
<circle cx="26" cy="169" r="2" fill="#FF0000"/>
<circle cx="2" cy="85" r="2" fill="#FF0000"/>
<circle cx="50" cy="85" r="2" fill="#FF0000"/>
<circle cx="50" cy="141" r="2" fill="#FF0000"/>
<circle cx="2" cy="141" r="2" fill="#FF0000"/>
<circle cx="2" cy="113" r="2" fill="#FF0000"/>
<circle cx="50" cy="113" r="2" fill="#FF0000"/>
<circle cx="50" cy="169" r="2" fill="#FF0000"/>
<circle cx="2" cy="169" r="2" fill="#FF0000"/>
<circle cx="1225" cy="321" r="2" fill="#FF0000"/>
<circle cx="1273" cy="321" r="2" fill="#FF0000"/>
<circle cx="1273" cy="377" r="2" fill="#FF0000"/>
<circle cx="1225" cy="377" r="2" fill="#FF0000"/>
<circle cx="1225" cy="349" r="2" fill="#FF0000"/>
<circle cx="1273" cy="349" r="2" fill="#FF0000"/>
<circle cx="1273" cy="405" r="2" fill="#FF0000"/>
<circle cx="1225" cy="405" r="2" fill="#FF0000"/>
<circle cx="1249" cy="321" r="2" fill="#FF0000"/>
<circle cx="1249" cy="377" r="2" fill="#FF0000"/>
<circle cx="1249" cy="349" r="2" fill="#FF0000"/>
<circle cx="1249" cy="405" r="2" fill="#FF0000"/>
<circle cx="1225" cy="335" r="2" fill="#FF0000"/>
<circle cx="1273" cy="335" r="2" fill="#FF0000"/>
<circle cx="1273" cy="391" r="2" fill="#FF0000"/>
<circle cx="1225" cy="391" r="2" fill="#FF0000"/>
<circle cx="1225" cy="363" r="2" fill="#FF0000"/>
<circle cx="1273" cy="363" r="2" fill="#FF0000"/>
<circle cx="1273" cy="419" r="2" fill="#FF0000"/>
<circle cx="1225" cy="419" r="2" fill="#FF0000"/>
<circle cx="1249" cy="335" r="2" fill="#FF0000"/>
<circle cx="1249" cy="391" r="2" fill="#FF0000"/>
<circle cx="1249" cy="363" r="2" fill="#FF0000"/>
<circle cx="1249" cy="419" r="2" fill="#FF0000"/>
<circle cx="1237" cy="321" r="2" fill="#FF0000"/>
<circle cx="1237" cy="377" r="2" fill="#FF0000"/>
<circle cx="1237" cy="349" r="2" fill="#FF0000"/>
<circle cx="1237" cy="405" r="2" fill="#FF0000"/>
<circle cx="1261" cy="321" r="2" fill="#FF0000"/>
<circle cx="1261" cy="377" r="2" fill="#FF0000"/>
<circle cx="1261" cy="349" r="2" fill="#FF0000"/>
<circle cx="1261" cy="405" r="2" fill="#FF0000"/>
<circle cx="1237" cy="335" r="2" fill="#FF0000"/>
<circle cx="1237" cy="391" r="2" fill="#FF0000"/>
<circle cx="1237" cy="363" r="2" fill="#FF0000"/>
<circle cx="1237" cy="419" r="2" fill="#FF0000"/>
<circle cx="1261" cy="335" r="2" fill="#FF0000"/>
<circle cx="1261" cy="391" r="2" fill="#FF0000"/>
<circle cx="1261" cy="363" r="2" fill="#FF0000"/>
<circle cx="1261" cy="419" r="2" fill="#FF0000"/>
</g>
<defs>
<clipPath id="clip0_1_2">
<rect width="1280" height="832" fill="white"/>
</clipPath>
</defs>
</svg>
