<svg width="1280" height="832" viewBox="0 0 1280 832" fill="none" xmlns="http://www.w3.org/2000/svg">
<g clip-path="url(#clip0_1_2)">
<circle cx="14" cy="71" r="2" fill="black"/>
<circle cx="14" cy="127" r="2" fill="black"/>
<circle cx="14" cy="99" r="2" fill="black"/>
<circle cx="14" cy="155" r="2" fill="black"/>
<circle cx="38" cy="71" r="2" fill="black"/>
<circle cx="38" cy="127" r="2" fill="black"/>
<circle cx="38" cy="99" r="2" fill="black"/>
<circle cx="38" cy="155" r="2" fill="black"/>
<circle cx="14" cy="85" r="2" fill="black"/>
<circle cx="14" cy="141" r="2" fill="black"/>
<circle cx="14" cy="113" r="2" fill="black"/>
<circle cx="14" cy="169" r="2" fill="black"/>
<circle cx="38" cy="85" r="2" fill="black"/>
<circle cx="38" cy="141" r="2" fill="black"/>
<circle cx="38" cy="113" r="2" fill="black"/>
<circle cx="38" cy="169" r="2" fill="black"/>
<circle cx="26" cy="71" r="2" fill="black"/>
<circle cx="26" cy="127" r="2" fill="black"/>
<circle cx="26" cy="99" r="2" fill="black"/>
<circle cx="26" cy="155" r="2" fill="black"/>
<circle cx="2" cy="71" r="2" fill="black"/>
<circle cx="50" cy="71" r="2" fill="black"/>
<circle cx="50" cy="127" r="2" fill="black"/>
<circle cx="2" cy="127" r="2" fill="black"/>
<circle cx="2" cy="99" r="2" fill="black"/>
<circle cx="50" cy="99" r="2" fill="black"/>
<circle cx="50" cy="155" r="2" fill="black"/>
<circle cx="2" cy="155" r="2" fill="black"/>
<circle cx="26" cy="85" r="2" fill="black"/>
<circle cx="26" cy="141" r="2" fill="black"/>
<circle cx="26" cy="113" r="2" fill="black"/>
<circle cx="26" cy="169" r="2" fill="black"/>
<circle cx="2" cy="85" r="2" fill="black"/>
<circle cx="50" cy="85" r="2" fill="black"/>
<circle cx="50" cy="141" r="2" fill="black"/>
<circle cx="2" cy="141" r="2" fill="black"/>
<circle cx="2" cy="113" r="2" fill="black"/>
<circle cx="50" cy="113" r="2" fill="black"/>
<circle cx="50" cy="169" r="2" fill="black"/>
<circle cx="2" cy="169" r="2" fill="black"/>
<circle cx="1225" cy="471" r="2" fill="black"/>
<circle cx="1273" cy="471" r="2" fill="black"/>
<circle cx="1273" cy="527" r="2" fill="black"/>
<circle cx="1225" cy="527" r="2" fill="black"/>
<circle cx="1225" cy="499" r="2" fill="black"/>
<circle cx="1273" cy="499" r="2" fill="black"/>
<circle cx="1273" cy="555" r="2" fill="black"/>
<circle cx="1225" cy="555" r="2" fill="black"/>
<circle cx="1249" cy="471" r="2" fill="black"/>
<circle cx="1249" cy="527" r="2" fill="black"/>
<circle cx="1249" cy="499" r="2" fill="black"/>
<circle cx="1249" cy="555" r="2" fill="black"/>
<circle cx="1225" cy="485" r="2" fill="black"/>
<circle cx="1273" cy="485" r="2" fill="black"/>
<circle cx="1273" cy="541" r="2" fill="black"/>
<circle cx="1225" cy="541" r="2" fill="black"/>
<circle cx="1225" cy="513" r="2" fill="black"/>
<circle cx="1273" cy="513" r="2" fill="black"/>
<circle cx="1273" cy="569" r="2" fill="black"/>
<circle cx="1225" cy="569" r="2" fill="black"/>
<circle cx="1249" cy="485" r="2" fill="black"/>
<circle cx="1249" cy="541" r="2" fill="black"/>
<circle cx="1249" cy="513" r="2" fill="black"/>
<circle cx="1249" cy="569" r="2" fill="black"/>
<circle cx="1237" cy="471" r="2" fill="black"/>
<circle cx="1237" cy="527" r="2" fill="black"/>
<circle cx="1237" cy="499" r="2" fill="black"/>
<circle cx="1237" cy="555" r="2" fill="black"/>
<circle cx="1261" cy="471" r="2" fill="black"/>
<circle cx="1261" cy="527" r="2" fill="black"/>
<circle cx="1261" cy="499" r="2" fill="black"/>
<circle cx="1261" cy="555" r="2" fill="black"/>
<circle cx="1237" cy="485" r="2" fill="black"/>
<circle cx="1237" cy="541" r="2" fill="black"/>
<circle cx="1237" cy="513" r="2" fill="black"/>
<circle cx="1237" cy="569" r="2" fill="black"/>
<circle cx="1261" cy="485" r="2" fill="black"/>
<circle cx="1261" cy="541" r="2" fill="black"/>
<circle cx="1261" cy="513" r="2" fill="black"/>
<circle cx="1261" cy="569" r="2" fill="black"/>
</g>
<defs>
<clipPath id="clip0_1_2">
<rect width="1280" height="832" fill="white"/>
</clipPath>
</defs>
</svg>
