<svg width="1280" height="832" viewBox="0 0 1280 832" fill="none" xmlns="http://www.w3.org/2000/svg">
<g clip-path="url(#clip0_1_2)">
<rect width="1280" height="832" fill="white"/>
<circle cx="14" cy="81" r="2" fill="black"/>
<circle cx="14" cy="137" r="2" fill="black"/>
<circle cx="14" cy="109" r="2" fill="black"/>
<circle cx="14" cy="165" r="2" fill="black"/>
<circle cx="38" cy="81" r="2" fill="black"/>
<circle cx="38" cy="137" r="2" fill="black"/>
<circle cx="38" cy="109" r="2" fill="black"/>
<circle cx="38" cy="165" r="2" fill="black"/>
<circle cx="14" cy="95" r="2" fill="black"/>
<circle cx="14" cy="151" r="2" fill="black"/>
<circle cx="14" cy="123" r="2" fill="black"/>
<circle cx="14" cy="179" r="2" fill="black"/>
<circle cx="38" cy="95" r="2" fill="black"/>
<circle cx="38" cy="151" r="2" fill="black"/>
<circle cx="38" cy="123" r="2" fill="black"/>
<circle cx="38" cy="179" r="2" fill="black"/>
<circle cx="26" cy="81" r="2" fill="black"/>
<circle cx="26" cy="137" r="2" fill="black"/>
<circle cx="26" cy="109" r="2" fill="black"/>
<circle cx="26" cy="165" r="2" fill="black"/>
<circle cx="2" cy="81" r="2" fill="black"/>
<circle cx="50" cy="81" r="2" fill="black"/>
<circle cx="50" cy="137" r="2" fill="black"/>
<circle cx="2" cy="137" r="2" fill="black"/>
<circle cx="2" cy="109" r="2" fill="black"/>
<circle cx="50" cy="109" r="2" fill="black"/>
<circle cx="50" cy="165" r="2" fill="black"/>
<circle cx="2" cy="165" r="2" fill="black"/>
<circle cx="26" cy="95" r="2" fill="black"/>
<circle cx="26" cy="151" r="2" fill="black"/>
<circle cx="26" cy="123" r="2" fill="black"/>
<circle cx="26" cy="179" r="2" fill="black"/>
<circle cx="2" cy="95" r="2" fill="black"/>
<circle cx="50" cy="95" r="2" fill="black"/>
<circle cx="50" cy="151" r="2" fill="black"/>
<circle cx="2" cy="151" r="2" fill="black"/>
<circle cx="2" cy="123" r="2" fill="black"/>
<circle cx="50" cy="123" r="2" fill="black"/>
<circle cx="50" cy="179" r="2" fill="black"/>
<circle cx="2" cy="179" r="2" fill="black"/>
<rect x="1181.5" y="470.5" width="362" height="230" stroke="black"/>
</g>
<defs>
<clipPath id="clip0_1_2">
<rect width="1280" height="832" fill="white"/>
</clipPath>
</defs>
</svg>
